<svg xmlns="http://www.w3.org/2000/svg" width="94" height="73" fill="none"><path fill="#004A74" d="M76.105 62.428c4.421-2.956 8.842-5.912 13.04-8.819l-.542-.35c-16.026 5.136-34.165 3.472-47.962-6.05C26.44 37.425 10.246 25.381 9.395 6.593c-.004-.584 1.027-.692 1.032-.108 1.607 17.92 16.714 28.68 30.329 37.89 12.94 8.771 29.603 11.226 44.873 6.957l-8.925-5.783c-1.488-.963-.067-3.147 1.509-2.32 4.234 2.356 8.422 4.487 12.656 6.843.541.35.68 1.023.46 1.656l.947.613c.947.614.73 1.832-.207 2.388-5.047 3.327-9.958 6.74-15.005 10.067-1.158 1.19-2.387-1.353-.959-2.367Z"/></svg>