<svg xmlns="http://www.w3.org/2000/svg" width="30" height="37" fill="none"><g clip-path="url(#a)"><path fill="#81C400" d="m7.89 26.182-6.534-3.417a1.766 1.766 0 0 1-.736-.64 1.715 1.715 0 0 1-.275-.927c0-.707.444-1.284 1.01-1.567l25.579-12.95c.866-.424 1.889-.141 2.333.718.422.85.133 1.85-.733 2.275L6 21.057l3.778 1.85c.867.435 1.167 1.415.722 2.285-.433.849-1.01 1.132-1.744 1.132-.29 0-.578 0-.867-.142Zm-5.8-9.391c-.579 0-1.312-.283-1.6-1.001-.445-.85-.145-1.85.721-2.275L26.79.565c.867-.435 1.89-.141 2.333.708.423.86.134 1.85-.733 2.285L2.956 16.649c-.29.142-.578.142-.867.142Zm9.3 18.783c-.445-.86-.145-1.85.721-2.285l14.667-7.4c.889-.425 1.889-.131 2.333.718.445.86.145 1.85-.722 2.285l-14.533 7.53c-.29.142-.578.142-.867.142-.589 0-1.31-.283-1.6-.99Z"/><path fill="#81C400" d="M2.078 36.009c-.577 0-1.3-.294-1.6-1.001-.433-.85 0-1.85.878-2.286L23.878 21.35l-3.777-1.85a1.685 1.685 0 0 1-.537-.407 1.644 1.644 0 0 1-.4-1.243 1.63 1.63 0 0 1 .203-.635c.445-.849 1.456-1.132 2.334-.707l6.677 3.417c.578.283 1.023.849 1.023 1.567 0 .707-.445 1.273-1.023 1.567L2.956 35.715c-.289.142-.589.294-.878.294Z"/><path fill="#3F3D3D" d="M13.133 20.916c0-.453.184-.887.51-1.208.328-.32.772-.5 1.234-.5.463 0 .907.18 1.234.5.327.32.51.755.51 1.208 0 .453-.183.888-.51 1.208-.327.32-.771.5-1.234.5-.462 0-.906-.18-1.233-.5a1.691 1.691 0 0 1-.511-1.208Z"/></g><defs><clipPath id="a"><path fill="#fff" d="M0 0h30v37H0z"/></clipPath></defs></svg>