<svg xmlns="http://www.w3.org/2000/svg" width="932" height="855" fill="none"><g filter="url(#a)"><path stroke="#81C400" stroke-linecap="round" stroke-opacity=".3" stroke-width="53" d="M106.779 386.558c10.717-24.852 47.476-33.107 61.276-55.031 7.891-12.538 23.751-19.857 36.748-26.851 17.686-9.518 34.724-23.196 51.661-34.21 23.685-15.402 49.874-37.926 77.04-47.024 26.929-9.018 60.378-26.999 83.886-41.946 36.059-22.927 85.279-32.625 127.296-41.618 39.487-8.451 82.647-14.425 122.73-1.997 10.362 3.213 26.109 5.264 35.486 11.167 4.267 2.686-.167 16.383-1.322 20.108l-8.404 27.105c-4.374 14.105-24.219 25.357-37.594 31.842-28.111 13.63-56.41 27.851-84.005 42.894-32.108 17.503-67.065 29.441-98.294 48.805-27.762 17.213-58.057 30.775-85.95 48.036-24.502 15.162-48.46 32.148-74.603 44.824-20.769 10.07-42.684 16.292-60.919 30.683-14.842 11.712-36.502 15.701-49.831 28.869-15.26 15.076-44.759 31.068-52.515 51.673-7.085 18.825 14.869 25.292 28.723 29.588 8.84 2.741 17.646 5.795 26.569 8.238 17.517 4.796 39.655-7.046 55.255-12.413 38.753-13.332 73.048-32.867 105.743-55.852 57.797-40.631 124.828-79.791 192.111-105.235 63.162-23.886 116.017-70.132 188.542-63.172 20.955 2.011 20.71 19.782 15.992 34.998-3.778 12.183-6.488 25.436-11.675 37.088-7.549 16.955-33.52 28.787-48.816 38.046-47.855 28.969-99.854 50.023-149.173 76.528-64.628 34.732-129.254 65.813-197.808 93.62-30.671 12.441-51.177 39.406-74.966 60.141-9.284 8.092-22.979 19.254-28.817 30.132-2.404 4.478 18.463 16.039 23.438 17.772 11.154 3.887 22.648 7.023 33.932 10.522 24.434 7.576 54.532.309 78.686-3.672 35.173-5.796 64.438-17.528 96.842-30.542 28.449-11.425 60.914-20.601 87.544-35.067 54.273-29.483 110.044-54.603 166.224-80.596 16.574-7.669 32.133-17.512 50.168-22.035 11.682-2.929 24.86-11.496 37.284-7.644"/></g><defs><filter id="a" width="930.296" height="808.216" x=".873" y="24.881" color-interpolation-filters="sRGB" filterUnits="userSpaceOnUse"><feFlood flood-opacity="0" result="BackgroundImageFix"/><feBlend in="SourceGraphic" in2="BackgroundImageFix" result="shape"/><feGaussianBlur result="effect1_foregroundBlur_157_631" stdDeviation="39.7"/></filter></defs></svg>