<svg width="174" height="56" viewBox="0 0 174 56" fill="none" xmlns="http://www.w3.org/2000/svg">
<g clip-path="url(#clip0_2035_370)">
<path d="M9.51466 46.9159C9.46471 41.1721 12.9397 34.9395 18.7917 32.7729C20.3991 32.1788 22.0685 32.0169 23.7636 31.9707C25.2491 31.9291 26.7513 31.9102 28.1089 31.1852C29.1109 30.6494 29.3878 29.8685 29.0193 28.8105C28.625 27.6829 28.1755 26.6008 29.4037 25.6079C29.932 25.1788 29.792 24.4554 29.3099 23.9582C28.9565 23.5927 29.0867 23.3452 29.3364 23.0289C30.2513 21.8355 30.2165 21.5229 29.1336 20.5013C28.3201 19.7264 28.3488 19.2217 29.2698 18.5572C29.434 18.4384 29.6103 18.3362 29.7693 18.2091C30.9074 17.298 30.865 16.4194 29.6474 15.6308C28.9663 15.1874 28.2981 14.7295 27.6148 14.2959C26.2041 13.4487 25.1824 12.0816 24.7694 10.4887C24.0906 7.89679 22.8321 5.67192 20.8509 3.86327C20.6965 3.72176 20.4278 3.5583 20.5217 3.28435C20.6148 3.01041 20.8789 3.09668 21.0499 3.1436C24.6717 4.1183 27.8713 2.63052 31.1223 1.41819C37.5699 -0.982997 44.4723 3.01646 46.6722 9.09246C48.0949 13.0352 47.5349 16.7811 45.814 20.4272C44.4095 23.405 43.129 26.4093 42.4563 29.652C42.2944 30.5213 42.2176 31.4044 42.227 32.2886C42.1884 35.2853 42.1982 38.2912 41.8198 41.263C41.2288 45.8383 39.3362 49.7485 35.5395 52.55C35.0285 52.9419 34.4418 53.2238 33.8164 53.3779C31.8768 53.8153 30.5358 52.8444 30.2248 50.8374C29.9342 48.9471 30.162 47.0257 29.9055 45.1338C29.5657 42.6281 28.9361 40.2285 27.5459 38.0687C25.3914 34.7314 21.8248 34.7314 19.7082 38.1073C18.1818 40.541 17.562 43.2782 17.2691 46.1047C17.0966 47.8271 17.3448 49.5623 17.0134 51.293C16.6501 53.2 14.5539 53.9273 12.8626 53.1698C10.8117 52.2518 9.75531 50.6377 9.52374 48.4461C9.49352 47.9366 9.48998 47.4258 9.51466 46.9159Z" fill="#4585E0"/>
<path d="M9.51466 46.9159C9.46471 41.1721 12.9397 34.9395 18.7917 32.7729C20.3991 32.1788 22.0685 32.0169 23.7636 31.9707C25.2491 31.9291 26.7513 31.9102 28.1089 31.1852C29.1109 30.6494 29.3878 29.8685 29.0193 28.8105C28.625 27.6829 28.1755 26.6008 29.4037 25.6079C29.932 25.1788 29.792 24.4554 29.3099 23.9582C28.9565 23.5927 29.0867 23.3452 29.3364 23.0289C30.2513 21.8355 30.2165 21.5229 29.1336 20.5013C28.3201 19.7264 28.3488 19.2217 29.2698 18.5572C29.434 18.4384 29.6103 18.3362 29.7693 18.2091C30.9074 17.298 30.865 16.4194 29.6474 15.6308C28.9663 15.1874 28.2981 14.7295 27.6148 14.2959C26.2041 13.4487 25.1824 12.0816 24.7694 10.4887C24.0906 7.89679 22.8321 5.67192 20.8509 3.86327C20.6965 3.72176 20.4278 3.5583 20.5217 3.28435C20.6148 3.01041 20.8789 3.09668 21.0499 3.1436C24.6717 4.1183 27.8713 2.63052 31.1223 1.41819C37.5699 -0.982997 44.4723 3.01646 46.6722 9.09246C48.0949 13.0352 47.5349 16.7811 45.814 20.4272C44.4095 23.405 43.129 26.4093 42.4563 29.652C42.2944 30.5213 42.2176 31.4044 42.227 32.2886C42.1884 35.2853 42.1982 38.2912 41.8198 41.263C41.2288 45.8383 39.3362 49.7485 35.5395 52.55C35.0285 52.9419 34.4418 53.2238 33.8164 53.3779C31.8768 53.8153 30.5358 52.8444 30.2248 50.8374C29.9342 48.9471 30.162 47.0257 29.9055 45.1338C29.5657 42.6281 28.9361 40.2285 27.5459 38.0687C25.3914 34.7314 21.8248 34.7314 19.7082 38.1073C18.1818 40.541 17.562 43.2782 17.2691 46.1047C17.0966 47.8271 17.3448 49.5623 17.0134 51.293C16.6501 53.2 14.5539 53.9273 12.8626 53.1698C10.8117 52.2518 9.75531 50.6377 9.52374 48.4461C9.49352 47.9366 9.48998 47.4258 9.51466 46.9159Z" fill="url(#paint0_linear_2035_370)"/>
<path d="M18.6138 11.4344C18.3186 19.7073 14.0732 26.6619 6.02663 30.0317C5.32511 30.3238 4.85214 30.2935 4.70154 29.3453C4.1143 25.6418 2.24587 22.4134 0.8663 19.0005C-1.6257 12.8026 0.43949 5.81927 5.9169 2.45549C8.50198 0.869324 11.3126 0.150405 14.3419 1.02522C15.785 1.43386 16.3927 2.61895 16.9451 3.91603C18 6.38986 18.4231 8.97949 18.6138 11.4344Z" fill="#4585E0"/>
<path d="M18.6138 11.4344C18.3186 19.7073 14.0732 26.6619 6.02663 30.0317C5.32511 30.3238 4.85214 30.2935 4.70154 29.3453C4.1143 25.6418 2.24587 22.4134 0.8663 19.0005C-1.6257 12.8026 0.43949 5.81927 5.9169 2.45549C8.50198 0.869324 11.3126 0.150405 14.3419 1.02522C15.785 1.43386 16.3927 2.61895 16.9451 3.91603C18 6.38986 18.4231 8.97949 18.6138 11.4344Z" fill="url(#paint1_linear_2035_370)"/>
<path d="M69.4897 15.915C69.4897 17.3294 69.0047 18.4388 68.0353 19.2417C67.0666 20.0454 65.6969 20.4782 63.9276 20.5395V21.6686H62.5329V20.5395C60.7636 20.4684 59.3893 20.0302 58.4093 19.2265C57.4407 18.4236 56.9548 17.3195 56.9548 15.915C56.9548 14.5014 57.4399 13.392 58.4093 12.5883C59.3893 11.7854 60.7628 11.3472 62.5329 11.2761V10.1924H63.9276V11.2761C65.687 11.3472 67.0515 11.7891 68.0201 12.6034C69.0001 13.4071 69.4897 14.5112 69.4897 15.915ZM63.9276 19.3491C65.2655 19.2674 66.2864 18.9367 66.9856 18.357C67.6962 17.7668 68.0504 16.9472 68.0504 15.8998C68.0504 14.8722 67.6902 14.0685 66.9705 13.4888C66.2607 12.8985 65.2466 12.5625 63.9268 12.4816L63.9276 19.3491ZM58.4086 15.9142C58.4086 16.9525 58.7635 17.7668 59.4733 18.3563C60.1922 18.936 61.2123 19.2667 62.5321 19.3476V12.4808C61.1927 12.5625 60.168 12.8925 59.4582 13.4722C58.7589 14.0526 58.4086 14.8669 58.4086 15.9142ZM80.079 10.5889V21.2705H78.6094V11.917H73.9614L73.8555 15.0455C73.8063 16.5204 73.686 17.7161 73.4968 18.6317C73.3167 19.5474 73.0253 20.2391 72.6265 20.7068C72.2262 21.1646 71.6866 21.3939 71.007 21.3939C70.6881 21.3928 70.3705 21.3516 70.0619 21.2713L70.1678 19.9137C70.3275 19.9538 70.4872 19.9742 70.6468 19.9742C71.0774 19.9742 71.4225 19.8009 71.6813 19.4558C71.9416 19.0994 72.1369 18.5704 72.2663 17.8682C72.3965 17.1667 72.4812 16.2411 72.5213 15.0909L72.6863 10.5897H80.079V10.5889ZM88.0719 21.3931C87.0109 21.3931 86.0574 21.1585 85.2076 20.6909C84.373 20.2275 83.6788 19.5475 83.1984 18.7225C82.7186 17.8886 82.4787 16.9563 82.4787 15.9301C82.4787 14.9017 82.7186 13.9709 83.1984 13.1377C83.6763 12.3145 84.3714 11.6385 85.2076 11.1837C86.0567 10.7055 87.0117 10.4663 88.0719 10.4663C89.1208 10.4663 90.0705 10.7062 90.9203 11.1837C91.754 11.6363 92.4447 12.3128 92.9144 13.1369C93.3942 13.9618 93.6333 14.8926 93.6333 15.9294C93.6333 16.9676 93.3942 17.903 92.9144 18.7369C92.4392 19.557 91.7499 20.2325 90.9203 20.6909C90.0705 21.1601 89.1208 21.3931 88.0719 21.3931ZM88.0719 20.0348C88.8415 20.0348 89.5309 19.8569 90.1401 19.5005C90.7501 19.1547 91.2532 18.6478 91.5946 18.0354C91.9574 17.3934 92.1439 16.6668 92.1349 15.9294C92.1349 15.156 91.9548 14.459 91.5946 13.8392C91.2566 13.2204 90.7529 12.7078 90.1401 12.359C89.5302 12.0025 88.8415 11.8247 88.0719 11.8247C87.3015 11.8247 86.6015 12.0025 85.9719 12.359C85.3573 12.7102 84.8496 13.2218 84.503 13.8392C84.1482 14.478 83.9674 15.1987 83.9786 15.9294C83.9786 16.7035 84.1527 17.405 84.503 18.0354C84.8526 18.6467 85.3599 19.153 85.9719 19.5012C86.6015 19.8577 87.3015 20.0348 88.0719 20.0348ZM100.152 10.5889C101.511 10.5889 102.58 10.9189 103.359 11.5803C104.139 12.2424 104.529 13.1521 104.529 14.3122C104.529 15.4723 104.139 16.3834 103.359 17.0441C102.58 17.7055 101.511 18.0354 100.151 18.0354H97.5571V21.2705H96.058V10.5897H100.152V10.5889ZM100.107 16.7081C101.056 16.7081 101.781 16.5037 102.28 16.0974C102.779 15.6804 103.03 15.0848 103.03 14.3114C103.03 13.538 102.779 12.9492 102.28 12.5421C101.781 12.1244 101.056 11.9163 100.107 11.9163H97.5571V16.7081H100.107ZM114.231 19.9432V21.2705H106.615V10.5897H114.023V11.917H108.115V15.1976H113.378V16.4954H108.115V19.9439L114.231 19.9432ZM125.612 10.5889V21.2705H124.113V16.5098H118.086V21.2705H116.587V10.5897H118.086V15.1832H124.113V10.5897H125.612V10.5889ZM139.323 19.9432V23.6967H137.928V21.2721H128.886V10.5897H130.371V19.9439H136.218V10.5897H137.703V19.9439L139.323 19.9432ZM141.317 10.5889H142.801V18.8292L149.009 10.5882H150.389V21.2721H148.919V13.0461L142.696 21.2721H141.317V10.5889ZM161.352 10.5889V21.2705H159.883V18.158H156.989C156.809 18.158 156.673 18.152 156.584 18.1429L154.485 21.2705H152.896L155.22 17.8833C154.47 17.629 153.896 17.2075 153.495 16.6165C153.095 16.0171 152.896 15.2884 152.896 14.434C152.896 13.224 153.276 12.2825 154.035 11.6113C154.806 10.9302 155.84 10.5889 157.139 10.5889H161.352ZM154.41 14.4189C154.41 15.2127 154.635 15.8227 155.085 16.2502C155.545 16.668 156.219 16.8761 157.109 16.8761H159.883V11.9163H157.199C156.299 11.9163 155.609 12.1297 155.13 12.5572C154.651 12.9848 154.41 13.6046 154.41 14.4189ZM65.8339 33.8501V36.1938H65.3193V34.3518H58.7007V26.7215H59.247V33.8501H64.0774V26.7215H64.623V33.8501H65.8339ZM71.9227 31.6374H67.1143C67.1287 32.0816 67.2399 32.4774 67.4465 32.8255C67.6539 33.1668 67.9308 33.4331 68.282 33.6216C68.6392 33.8108 69.0387 33.9046 69.4814 33.9046C69.8454 33.9046 70.1814 33.8395 70.4879 33.7086C70.802 33.5701 71.0631 33.3711 71.2696 33.1092L71.5799 33.4687C71.3325 33.7707 71.0169 34.006 70.6597 34.1558C70.2846 34.3182 69.8795 34.3999 69.4708 34.3957C68.9139 34.3957 68.4174 34.2724 67.9815 34.0249C67.5518 33.7836 67.1964 33.4293 66.9539 33.0003C66.7057 32.5423 66.5803 32.028 66.5899 31.5072C66.5899 30.9548 66.7041 30.4606 66.9327 30.0239C67.153 29.5972 67.4862 29.2391 67.896 28.9887C68.3096 28.7397 68.7845 28.6112 69.2673 28.6179C69.7743 28.6179 70.2283 28.7412 70.6272 28.9887C71.0343 29.2286 71.3521 29.5669 71.5807 30.0028C71.816 30.4387 71.9341 30.9321 71.9341 31.4852L71.9227 31.6374ZM69.2665 29.0977C68.8738 29.0977 68.5203 29.1885 68.207 29.3701C67.8901 29.5474 67.6272 29.8074 67.4465 30.1223C67.2573 30.4553 67.1468 30.8284 67.1249 31.2121H71.4089C71.3942 30.8278 71.2839 30.4532 71.088 30.1223C70.9031 29.8108 70.6412 29.552 70.3275 29.3709C70.0048 29.1869 69.6387 29.0929 69.2673 29.0984L69.2665 29.0977ZM73.6837 28.6618H74.2195V31.256H78.0108V28.6618H78.5459V34.3518H78.0108V31.7357H74.2195V34.3518H73.6837V28.6618ZM84.5969 29.1522H82.4121V34.3518H81.8763V29.1529H79.6923V28.6618H84.5969V29.1522ZM88.5593 28.6179C89.0799 28.6179 89.5514 28.7412 89.9736 28.9887C90.3944 29.2362 90.7228 29.5775 90.9582 30.0134C91.2011 30.4492 91.3229 30.948 91.3229 31.5072C91.3229 32.0664 91.2011 32.5674 90.9582 33.0109C90.7317 33.4373 90.3907 33.7922 89.9736 34.0355C89.5421 34.2779 89.0542 34.4022 88.5593 34.3957C88.0898 34.4016 87.6274 34.2811 87.2206 34.0469C86.8236 33.8095 86.5009 33.4659 86.289 33.0548V36.4662H85.754V28.6618H86.2678V30.0028C86.4741 29.582 86.7976 29.2298 87.1994 28.9887C87.6092 28.7406 88.0802 28.6122 88.5593 28.6179ZM88.5275 33.9046C88.9566 33.9046 89.341 33.804 89.6838 33.5996C90.0259 33.397 90.3043 33.1026 90.4875 32.7498C90.6865 32.3865 90.7872 31.9726 90.7872 31.5072C90.7872 31.041 90.6865 30.6271 90.4875 30.2638C90.3044 29.9109 90.0259 29.6165 89.6838 29.414C89.3336 29.2083 88.9336 29.1028 88.5275 29.109C88.1214 29.1029 87.7214 29.2084 87.3712 29.414C87.0329 29.6198 86.7567 29.9135 86.5675 30.2638C86.3701 30.6481 86.2708 31.0753 86.2784 31.5072C86.2784 31.9726 86.3753 32.3865 86.5675 32.7498C86.7665 33.113 87.0344 33.3961 87.3712 33.5996C87.714 33.804 88.0992 33.9046 88.5275 33.9046ZM101.522 33.8721V35.8343H101.009V34.3518H95.815V28.6618H96.3501V33.8721H100.055V28.6618H100.591V33.8721H101.522ZM103.084 28.6618H103.619V33.5126L107.603 28.6618H108.074V34.3518H107.539V29.501L103.554 34.3518H103.084V28.6618ZM116.874 31.4958C116.874 32.3896 116.589 33.0911 116.017 33.5996C115.446 34.1014 114.639 34.37 113.597 34.4063V36.4662H113.073V34.4063C112.029 34.3708 111.223 34.1014 110.651 33.5996C110.08 33.0911 109.795 32.3896 109.795 31.4958C109.795 30.6165 110.08 29.9263 110.651 29.4254C111.23 28.9236 112.037 28.6542 113.073 28.6187V26.2636H113.597V28.6179C114.639 28.6542 115.446 28.9236 116.017 29.4254C116.589 29.9263 116.874 30.6165 116.874 31.4958ZM110.331 31.4958C110.331 32.2299 110.567 32.8073 111.037 33.2288C111.509 33.6511 112.187 33.8796 113.073 33.916V29.109C112.187 29.1446 111.509 29.3709 111.037 29.7848C110.567 30.1988 110.331 30.7686 110.331 31.4958ZM113.597 33.916C114.482 33.8796 115.161 33.6541 115.631 33.2402C116.11 32.8179 116.35 32.2375 116.35 31.4958C116.35 30.7694 116.11 30.1988 115.631 29.7848C115.161 29.3709 114.482 29.1446 113.597 29.109V33.916ZM121.421 28.6187C121.942 28.6187 122.414 28.7412 122.834 28.9895C123.257 29.2362 123.584 29.5775 123.82 30.0134C124.062 30.4492 124.184 30.948 124.184 31.5072C124.184 32.0664 124.062 32.5674 123.82 33.0109C123.593 33.4377 123.252 33.7926 122.834 34.0355C122.403 34.2782 121.915 34.4025 121.421 34.3957C120.951 34.4016 120.489 34.2811 120.082 34.0469C119.685 33.8099 119.362 33.4661 119.15 33.0548V36.4662H118.615V28.6618H119.129V30.0028C119.336 29.5822 119.659 29.2301 120.061 28.9887C120.471 28.7407 120.942 28.613 121.421 28.6187ZM121.388 33.9046C121.816 33.9046 122.202 33.804 122.545 33.5996C122.888 33.3953 123.155 33.1123 123.348 32.7498C123.553 32.3681 123.656 31.9402 123.648 31.5072C123.656 31.0739 123.553 30.6457 123.348 30.2638C123.165 29.911 122.887 29.6165 122.545 29.414C122.195 29.2084 121.794 29.1029 121.388 29.109C120.982 29.1029 120.582 29.2084 120.232 29.414C119.894 29.6198 119.617 29.9135 119.428 30.2638C119.231 30.6481 119.131 31.0753 119.139 31.5072C119.139 31.9726 119.235 32.3865 119.428 32.7498C119.629 33.113 119.897 33.3961 120.232 33.5996C120.575 33.804 120.96 33.9046 121.388 33.9046ZM128.153 34.3957C127.65 34.4023 127.154 34.2742 126.717 34.0249C126.299 33.78 125.954 33.4258 125.721 33.0003C125.476 32.5414 125.35 32.0277 125.357 31.5072C125.357 30.9548 125.48 30.4606 125.721 30.0239C125.952 29.594 126.297 29.2359 126.717 28.9887C127.154 28.7392 127.65 28.6111 128.153 28.6179C128.682 28.6179 129.156 28.7412 129.577 28.9887C130.005 29.2362 130.341 29.5805 130.584 30.0247C130.827 30.4606 130.948 30.954 130.948 31.5072C130.948 32.0596 130.827 32.5568 130.584 33.0003C130.349 33.428 130.001 33.7826 129.577 34.0249C129.156 34.2724 128.682 34.3957 128.153 34.3957ZM128.153 33.9046C128.553 33.9114 128.947 33.807 129.291 33.6031C129.635 33.3993 129.915 33.1038 130.101 32.7498C130.307 32.3683 130.41 31.9403 130.402 31.5072C130.41 31.0738 130.307 30.6455 130.101 30.2638C129.919 29.9108 129.641 29.6163 129.299 29.414C128.952 29.2076 128.556 29.102 128.153 29.109C127.724 29.109 127.339 29.2104 126.996 29.414C126.658 29.6212 126.38 29.9145 126.193 30.2638C125.995 30.6479 125.895 31.0752 125.904 31.5072C125.904 31.9726 126 32.3865 126.193 32.7498C126.393 33.113 126.661 33.3961 126.996 33.5996C127.339 33.804 127.724 33.9046 128.153 33.9046ZM136.002 31.4194C136.822 31.5647 137.234 32.0331 137.234 32.8255C137.234 33.3196 137.055 33.698 136.698 33.9591C136.348 34.2209 135.819 34.3518 135.113 34.3518H132.693V28.6618H135.049C135.67 28.6618 136.155 28.7897 136.505 29.0432C136.862 29.2907 137.041 29.6463 137.041 30.1117C137.041 30.4462 136.948 30.7247 136.762 30.951C136.584 31.1689 136.33 31.3241 136.002 31.4194ZM133.218 31.256H135.017C135.494 31.256 135.863 31.1651 136.119 30.9835C136.376 30.7951 136.505 30.5257 136.505 30.1768C136.505 29.8211 136.376 29.5563 136.119 29.3815C135.869 29.1998 135.502 29.109 135.017 29.109H133.218V31.256ZM135.102 33.9046C136.165 33.9046 136.698 33.5376 136.698 32.8043C136.698 32.4191 136.575 32.1361 136.334 31.9537C136.091 31.7721 135.708 31.6812 135.188 31.6812H133.218V33.9046H135.102ZM141.362 34.3957C140.859 34.4023 140.364 34.2743 139.927 34.0249C139.508 33.78 139.164 33.4258 138.931 33.0003C138.685 32.5416 138.56 32.0277 138.567 31.5072C138.567 30.9548 138.688 30.4606 138.931 30.0239C139.162 29.5937 139.506 29.2355 139.927 28.9887C140.364 28.7393 140.859 28.6112 141.362 28.6179C141.892 28.6179 142.365 28.7412 142.786 28.9887C143.212 29.233 143.561 29.5919 143.793 30.0247C144.036 30.4606 144.157 30.954 144.157 31.5072C144.157 32.0596 144.036 32.5568 143.793 33.0003C143.559 33.4282 143.21 33.7828 142.786 34.0249C142.365 34.2724 141.892 34.3957 141.362 34.3957ZM141.362 33.9046C141.765 33.9117 142.162 33.8061 142.508 33.5996C142.851 33.3953 143.118 33.1123 143.311 32.7498C143.516 32.3681 143.619 31.9403 143.612 31.5072C143.62 31.0739 143.516 30.6458 143.311 30.2638C143.128 29.9113 142.85 29.617 142.508 29.414C142.162 29.2077 141.765 29.1021 141.362 29.109C140.934 29.109 140.548 29.2104 140.206 29.414C139.868 29.6198 139.591 29.9135 139.403 30.2638C139.204 30.6478 139.105 31.0751 139.113 31.5072C139.113 31.9726 139.21 32.3865 139.403 32.7498C139.603 33.113 139.87 33.3961 140.206 33.5996C140.548 33.804 140.934 33.9046 141.362 33.9046ZM145.903 28.6618H146.438V33.5126L150.421 28.6618H150.893V34.3518H150.357V29.501L146.373 34.3518H145.903V28.6618ZM148.376 27.79C147.927 27.79 147.562 27.6735 147.284 27.4411C147.005 27.2012 146.861 26.8713 146.855 26.4498H147.251C147.258 26.7464 147.365 26.9833 147.573 27.1574C147.787 27.3314 148.055 27.4192 148.376 27.4192C148.698 27.4192 148.961 27.3322 149.169 27.1574C149.271 27.07 149.353 26.9613 149.408 26.8389C149.463 26.7165 149.491 26.5834 149.49 26.449H149.897C149.89 26.8713 149.747 27.2012 149.468 27.4404C149.19 27.6735 148.826 27.79 148.376 27.79ZM58.5077 39.5621H59.0435V44.4129L63.0278 39.5621H63.4985V45.2522H62.9635V40.4014L58.9792 45.2522H58.5077V39.5621ZM71.8909 39.5621V45.2522H71.399V40.4331L68.9668 44.5211H68.7209L66.3008 40.4445V45.2514H65.8081V39.5614H66.3326L68.8601 43.8673L71.3983 39.5614L71.8909 39.5621ZM79.09 39.5621V45.2522H78.5542V40.0532H74.7416V45.2522H74.2066V39.5621H79.09ZM85.7721 39.5621V45.2522H85.2363V40.0532H82.3236L82.2487 41.5675C82.2188 42.2283 82.1543 42.8871 82.0557 43.5411C81.9702 44.0716 81.8234 44.5 81.616 44.8276C81.4102 45.1538 81.1234 45.3172 80.7601 45.3172C80.6041 45.3101 80.4494 45.2847 80.2993 45.2416L80.353 44.7724C80.4673 44.8019 80.5528 44.8163 80.6103 44.8163C80.9092 44.8163 81.1377 44.6664 81.2952 44.3698C81.4533 44.0716 81.56 43.7008 81.616 43.2574C81.6735 42.8139 81.7205 42.2357 81.756 41.5244L81.8521 39.5621H85.7721ZM89.9381 39.5182C90.6305 39.5182 91.1625 39.7006 91.5341 40.0631C91.9049 40.4203 92.091 40.9462 92.091 41.6447V45.2522H91.5765V44.2381C91.3994 44.5726 91.1375 44.8344 90.7947 45.0229C90.4519 45.2052 90.0417 45.2953 89.5635 45.2953C88.9422 45.2953 88.4495 45.1462 88.0848 44.8488C87.9114 44.7075 87.7731 44.528 87.6807 44.3244C87.5876 44.1196 87.5428 43.8961 87.5497 43.6713C87.5497 43.1998 87.714 42.8184 88.0424 42.5271C88.3792 42.2297 88.9096 42.0806 89.6384 42.0806H91.5553V41.622C91.5553 41.0915 91.4122 40.6882 91.1269 40.4127C90.8485 40.1365 90.4383 39.998 89.8949 39.998C89.5234 39.998 89.1669 40.0638 88.8241 40.1948C88.4889 40.3249 88.2036 40.4997 87.9675 40.7169L87.6996 40.3249C87.9919 40.0627 88.3342 39.8624 88.7061 39.7362C89.1005 39.5908 89.5177 39.517 89.9381 39.5182ZM89.6384 44.8488C90.1023 44.8488 90.495 44.7398 90.8167 44.5219C91.1451 44.304 91.391 43.9876 91.5553 43.5737V42.5051H89.649C89.0996 42.5051 88.7 42.6065 88.4495 42.8101C88.2066 43.0144 88.0848 43.2937 88.0848 43.6501C88.0848 44.0209 88.221 44.3145 88.4919 44.5325C88.7643 44.7429 89.145 44.8488 89.6384 44.8488ZM94.2675 39.5621H94.8025V42.1563H98.5931V39.5629H99.1289V45.2529H98.5931V42.6353H94.8025V45.2514H94.2675V39.5621ZM105.179 40.0525H102.994V45.2514H102.459V40.0525H100.274V39.5621H105.179V40.0525ZM108.178 39.5182C108.871 39.5182 109.403 39.7006 109.774 40.0631C110.145 40.4203 110.331 40.9462 110.331 41.6447V45.2522H109.817V44.2381C109.639 44.5714 109.367 44.8445 109.034 45.0229C108.692 45.2052 108.282 45.2953 107.803 45.2953C107.182 45.2953 106.69 45.1462 106.325 44.8488C106.152 44.7064 106.013 44.5263 105.921 44.3222C105.828 44.118 105.783 43.8954 105.79 43.6713C105.79 43.1998 105.955 42.8184 106.283 42.5271C106.619 42.2297 107.15 42.0806 107.879 42.0806H109.795V41.622C109.795 41.0915 109.652 40.6882 109.367 40.4127C109.089 40.1365 108.678 39.998 108.135 39.998C107.765 39.998 107.407 40.0638 107.064 40.1948C106.748 40.3134 106.457 40.4906 106.207 40.7169L105.94 40.3249C106.232 40.063 106.575 39.8628 106.946 39.7362C107.341 39.5908 107.758 39.517 108.178 39.5182ZM107.879 44.8488C108.342 44.8488 108.735 44.7398 109.057 44.5219C109.385 44.304 109.631 43.9876 109.795 43.5737V42.5051H107.888C107.34 42.5051 106.939 42.6065 106.69 42.8101C106.447 43.0144 106.325 43.2937 106.325 43.6501C106.325 44.0209 106.461 44.3145 106.732 44.5325C107.004 44.7429 107.385 44.8488 107.879 44.8488ZM118.215 44.7731V46.7347H117.7V45.2514H112.506V39.5629H113.042V44.7731H116.748V39.5629H117.283V44.7731H118.215ZM119.776 39.5621H120.311V44.4129L124.295 39.5621H124.766V45.2522H124.23V40.4014L120.246 45.2522H119.776V39.5621ZM127.075 39.5621H127.611V44.4129L131.595 39.5621H132.066V45.2522H131.531V40.4014L127.547 45.2522H127.075V39.5621Z" fill="#141414"/>
</g>
<defs>
<linearGradient id="paint0_linear_2035_370" x1="9.52914" y1="27.1313" x2="47.5114" y2="27.1313" gradientUnits="userSpaceOnUse">
<stop stop-color="#58B7DE"/>
<stop offset="1" stop-color="#80CDF3"/>
</linearGradient>
<linearGradient id="paint1_linear_2035_370" x1="-0.17798" y1="15.4244" x2="18.615" y2="15.4244" gradientUnits="userSpaceOnUse">
<stop stop-color="#58B7DE"/>
<stop offset="1" stop-color="#80CDF3"/>
</linearGradient>
<clipPath id="clip0_2035_370">
<rect width="174" height="56" fill="white"/>
</clipPath>
</defs>
</svg>
