<svg xmlns="http://www.w3.org/2000/svg" width="26" height="20" fill="none"><g clip-path="url(#a)"><path fill="#81C400" d="M4.195 6.855a16.997 16.997 0 0 1 3.687-2.129 18.096 18.096 0 0 1 4.207-1.223c1.416-.228 2.873-.275 4.293-.082 1.371.185 2.758.592 3.962 1.314A8.32 8.32 0 0 1 23.22 7.67c.683 1.168 1.088 2.529 1.01 3.907-.065 1.15-.503 2.262-1.129 3.198a6.961 6.961 0 0 1-1.977 1.94c-.806.528-1.698.889-2.615 1.138-.982.262-1.993.395-3.004.429a19.32 19.32 0 0 1-3.188-.159 22.358 22.358 0 0 1-3.094-.622 21.719 21.719 0 0 1-2.844-.983 15.597 15.597 0 0 1-2.316-1.215c-1.089-.709-2.174-1.653-2.693-2.92a3.497 3.497 0 0 1-.189-2.064c.168-.777.57-1.486 1.06-2.09.933-1.151 2.17-2.062 3.43-2.778A15.107 15.107 0 0 1 9.56 3.915a15.886 15.886 0 0 1 4.146-.442c1.391.034 2.778.253 4.113.656 1.33.404 2.607.992 3.777 1.76 1.26.829 2.402 1.885 3.192 3.22.761 1.284 1.146 2.833.659 4.302-.495 1.485-1.735 2.55-2.963 3.365a16.547 16.547 0 0 1-4.187 1.983c-1.473.464-3 .739-4.534.846a21.764 21.764 0 0 1-4.637-.18c-1.359-.198-2.71-.502-4.002-.987-1.159-.434-2.305-1.018-3.23-1.88-.92-.86-1.571-2.018-1.596-3.336-.028-1.572.803-3.005 1.801-4.109.802-.884 1.752-1.605 2.77-2.189a15.64 15.64 0 0 1 2.788-1.236 17.707 17.707 0 0 1 3.082-.726 16.725 16.725 0 0 1 3.175-.15c1.036.051 2.063.206 3.062.485.957.27 1.89.657 2.75 1.18a8.79 8.79 0 0 1 2.23 1.945 8.835 8.835 0 0 1 1.494 2.752c.254.756.466 1.588.331 2.391-.147.846-.695 1.524-1.252 2.125-1.048 1.133-2.353 2.043-3.77 2.58-.134.052-.077.28.062.228a10.304 10.304 0 0 0 3.999-2.696c.56-.614 1.105-1.322 1.244-2.181.139-.833-.053-1.683-.311-2.469a9.222 9.222 0 0 0-1.535-2.884 8.986 8.986 0 0 0-2.296-2.035 10.92 10.92 0 0 0-2.84-1.236 14.32 14.32 0 0 0-3.16-.503 16.786 16.786 0 0 0-3.282.168c-1.076.154-2.14.407-3.171.764-.99.339-1.957.768-2.865 1.305-1.068.627-2.063 1.408-2.881 2.36-.995 1.156-1.785 2.641-1.72 4.242.054 1.361.725 2.563 1.679 3.456.957.893 2.132 1.498 3.327 1.95 1.318.497 2.705.81 4.092 1.017a22.07 22.07 0 0 0 4.76.193c1.584-.112 3.16-.4 4.678-.893a16.827 16.827 0 0 0 4.28-2.082c1.257-.859 2.477-1.98 2.968-3.516.483-1.516.098-3.13-.676-4.46-.802-1.383-1.972-2.486-3.265-3.353a14.833 14.833 0 0 0-3.905-1.842 15.866 15.866 0 0 0-4.223-.682 16.095 16.095 0 0 0-4.273.463c-1.391.344-2.746.88-3.998 1.601-.626.361-1.224.765-1.793 1.215-.618.49-1.211 1.026-1.706 1.653-.504.635-.917 1.37-1.097 2.176a3.85 3.85 0 0 0 .155 2.181c.512 1.361 1.633 2.379 2.78 3.147.752.502 1.563.914 2.39 1.275.94.408 1.91.743 2.897 1.013 1.06.292 2.14.511 3.229.648 1.084.138 2.181.198 3.274.15 1.047-.047 2.1-.188 3.114-.472.941-.261 1.862-.652 2.685-1.21a7.28 7.28 0 0 0 2.058-2.086c.647-.996 1.073-2.177 1.122-3.388.053-1.416-.38-2.82-1.085-4.014a8.675 8.675 0 0 0-2.975-3.013c-1.244-.743-2.664-1.155-4.076-1.344-1.47-.197-2.963-.133-4.424.116-1.47.253-2.902.704-4.265 1.33a16.996 16.996 0 0 0-3.585 2.216c-.036.03.005.112.05.077Z"/><path stroke="#004A74" stroke-linecap="round" stroke-width="4" d="M7 8.5s4.5 6 5.5 6.5 9-13 9-13"/></g><defs><clipPath id="a"><path fill="#fff" d="M0 0h26v20H0z"/></clipPath></defs></svg>